<?xml version="1.0" encoding="iso-8859-1"?>
<!-- Generator: Adobe Illustrator 18.0.0, SVG Export Plug-In . SVG Version: 6.00 Build 0)  -->
<!DOCTYPE svg PUBLIC "-//W3C//DTD SVG 1.1//EN" "http://www.w3.org/Graphics/SVG/1.1/DTD/svg11.dtd">
<svg xmlns="http://www.w3.org/2000/svg" xmlns:xlink="http://www.w3.org/1999/xlink" version="1.1" id="Capa_1" x="0px" y="0px" viewBox="0 0 493.108 493.108" style="enable-background:new 0 0 493.108 493.108;" xml:space="preserve" width="512px" height="512px">
<g>
	<path d="M80.183,336.404c16.798,16.844,32.735,26.504,43.725,26.504c2.993,0,12.101,0,16.78-17.938   c11.552-44.289,39-76.882,59.992-96.426c16.096-14.985,30.748-24.693,38.193-29.223c0.078-5.559,0.312-10.957,0.713-16.18   c-2.037-26.866-8.633-48.59-19.725-64.711c-15.295-22.23-39.434-33.547-71.744-33.634l-0.384,0   c-70.075,0-127.228,52.542-127.403,117.125C20.239,255.924,50.69,306.831,80.183,336.404z" fill="#71ddff"/>
	<path d="M338.899,91.469c0.878-11.03-3.913-24.216-11.855-31.031l-63.906-54.84C258.931,1.988,253.23,0,247.085,0   c-6.088,0-11.747,1.957-15.934,5.511l-64.207,54.493c-7.978,6.771-12.84,19.929-12.024,30.964   c33.826,1.624,59.533,14.902,76.476,39.528c6.479,9.417,11.59,20.408,15.324,32.902c3.787-12.409,8.915-23.339,15.4-32.688   C279.191,106.095,305.003,92.915,338.899,91.469z" fill="#71ddff"/>
	<path d="M246.283,335.956c14.556,0,26.916-23.021,26.99-50.27c0.074-27.289-12.177-50.377-26.753-50.417   c-14.593,0-26.953,23.021-27.027,50.271c-0.038,14.083,3.106,27.227,8.852,37.011c2.935,4.997,9.163,13.382,17.901,13.405" fill="#71ddff"/>
	<path d="M256.949,368.651c-3.646-3.918-7.136-8.022-10.457-12.315c-0.216,0.02-0.432,0.035-0.648,0.05   c-6.562,8.38-13.756,16.039-21.542,22.958c10.136,40.461,28.664,73.72,50.365,107.861c2.18,3.43,5.31,5.903,9.127,5.903   c1.37,0,2.763-0.283,4.094-0.881c5.038-2.264,7.286-8.184,5.021-13.221C276.468,442.427,264.932,404.984,256.949,368.651z" fill="#71ddff"/>
	<path d="M369.239,410.166c32.143,4.501,59.661,0.789,70.186-1.057c3.922-27.806,2.637-65.426,1.698-83.181   c-25.621,32.435-52.506,51.644-72.58,51.644c-0.002,0-0.004,0-0.007,0c-8.613-0.002-24.008-3.716-30.347-28.569   c-9.855-38.639-32.95-68.251-53.982-88.433c2.001,7.695,3.09,16.184,3.066,25.154c-0.081,29.939-12.539,54.467-29.885,61.901   C284.096,382.481,321.631,403.5,369.239,410.166z" fill="#71ddff"/>
	<path d="M216.273,329.641c-6.997-11.912-10.825-27.588-10.78-44.139c0.024-8.965,1.159-17.445,3.201-25.128   c-21.14,20.065-44.393,49.54-54.458,88.13c-6.447,24.714-21.768,28.404-30.327,28.404c-19.095,0-39.708-16.65-53.638-30.618   c-6.3-6.317-12.675-13.593-18.84-21.486c-1.035,17.722-2.532,55.393,1.244,83.255c10.509,1.902,38.009,5.765,70.179,1.438   c47.634-6.407,85.273-27.221,112.169-61.921C227.845,344.467,221.398,338.367,216.273,329.641z" fill="#71ddff"/>
	<path d="M345.628,105.331l-0.381-0.001c-32.174,0-56.272,11.223-71.625,33.357c-13.185,19.01-20.162,45.855-20.757,79.831   c6.867,4.133,22.339,14.197,39.42,30.273c20.886,19.657,48.157,52.399,59.469,96.75c4.598,18.026,13.771,18.028,16.785,18.029   c0.001,0,0.003,0,0.004,0c15.896,0.001,41.996-20.353,64.951-50.651c24.167-31.896,39.218-66.294,39.282-89.771   C472.953,158.376,415.914,105.523,345.628,105.331z" fill="#71ddff"/>
</g>
<g>
</g>
<g>
</g>
<g>
</g>
<g>
</g>
<g>
</g>
<g>
</g>
<g>
</g>
<g>
</g>
<g>
</g>
<g>
</g>
<g>
</g>
<g>
</g>
<g>
</g>
<g>
</g>
<g>
</g>
</svg>
